<?xml version="1.0" encoding="UTF-8" standalone="no"?>
<svg width="110px" height="110px" viewBox="0 0 110 110" version="1.1" xmlns="http://www.w3.org/2000/svg" xmlns:xlink="http://www.w3.org/1999/xlink" xmlns:sketch="http://www.bohemiancoding.com/sketch/ns">
    <!-- Generator: Sketch 3.1.1 (8761) - http://www.bohemiancoding.com/sketch -->
    <title>instagram</title>
    <desc>Created with Sketch.</desc>
    <defs></defs>
    <g id="Page-1" stroke="none" stroke-width="1" fill="none" fill-rule="evenodd" sketch:type="MSPage">
        <g id="instagram" sketch:type="MSArtboardGroup" fill="#CACAC3">
            <path d="M86.3913725,4.45613333 L22.6135294,4.45613333 C11.5352941,4.45613333 2.52470588,13.4813333 2.52470588,24.5775333 L2.52470588,88.4660667 C2.52470588,99.5695333 11.5352941,108.587467 22.6135294,108.587467 L86.3913725,108.587467 C97.4913725,108.587467 106.501961,99.5695333 106.501961,88.4660667 L106.501961,24.5775333 C106.501961,13.4813333 97.4913725,4.45613333 86.3913725,4.45613333 L86.3913725,4.45613333 Z M92.1590196,16.4606667 L94.4660784,16.4461333 L94.4660784,34.0968667 L76.8947059,34.1477333 L76.8511765,16.5042667 L92.1590196,16.4606667 L92.1590196,16.4606667 Z M39.6770588,45.8325333 C42.9998039,41.2182 48.4047059,38.188 54.5060784,38.188 C60.6147059,38.188 66.0268627,41.2182 69.3496078,45.8325333 C71.5115686,48.8409333 72.8101961,52.5324 72.8101961,56.5218 C72.8101961,66.6297333 64.5976471,74.8410667 54.5060784,74.8410667 C44.4145098,74.8410667 36.2019608,66.6297333 36.2019608,56.5218 C36.2019608,52.5324 37.5078431,48.8409333 39.6770588,45.8325333 L39.6770588,45.8325333 Z M96.3596078,88.4660667 C96.3596078,93.9669333 91.8905882,98.4432 86.3913725,98.4432 L22.6135294,98.4432 C17.1288235,98.4432 12.652549,93.9669333 12.652549,88.4660667 L12.652549,45.8325333 L28.1707843,45.8325333 C26.8358824,49.1388667 26.0741176,52.7431333 26.0741176,56.5218 C26.0741176,72.2178 38.8282353,84.9926 54.5060784,84.9926 C70.1766667,84.9926 82.9452941,72.2178 82.9452941,56.5218 C82.9452941,52.7431333 82.1762745,49.1388667 80.8341176,45.8325333 L96.3596078,45.8325333 L96.3596078,88.4660667 L96.3596078,88.4660667 Z" id="Fill-3" sketch:type="MSShapeGroup"></path>
        </g>
    </g>
</svg>