<?xml version="1.0" encoding="UTF-8" standalone="no"?>
<svg width="91px" height="110px" viewBox="0 0 91 110" version="1.1" xmlns="http://www.w3.org/2000/svg" xmlns:xlink="http://www.w3.org/1999/xlink" xmlns:sketch="http://www.bohemiancoding.com/sketch/ns">
    <!-- Generator: Sketch 3.1.1 (8761) - http://www.bohemiancoding.com/sketch -->
    <title>pinterest</title>
    <desc>Created with Sketch.</desc>
    <defs></defs>
    <g id="Page-1" stroke="none" stroke-width="1" fill="none" fill-rule="evenodd" sketch:type="MSPage">
        <g id="pinterest" sketch:type="MSArtboardGroup" fill="#CACAC3">
            <path d="M48.3464706,4.2454 C19.8564706,4.2454 5.49901961,24.7010667 5.49901961,41.7632 C5.49901961,52.0964 9.39490196,61.2742 17.7670588,64.7113333 C19.1454902,65.2708667 20.3860784,64.7186 20.7705882,63.2071333 C21.0535294,62.1534667 21.7064706,59.4938667 21.9966667,58.3820667 C22.4029412,56.8778667 22.2433333,56.3546667 21.1405882,55.0394 C18.717451,52.1836 17.1866667,48.4848667 17.1866667,43.2601333 C17.1866667,28.0800667 28.5115686,14.4841333 46.6996078,14.4841333 C62.8127451,14.4841333 71.6492157,24.345 71.6492157,37.4976667 C71.6492157,54.8214 64.002549,69.4492 52.6558824,69.4492 C46.3803922,69.4492 41.6792157,64.2462667 43.1737255,57.8661333 C44.987451,50.2652 48.4843137,42.0538667 48.4843137,36.5602667 C48.4843137,31.6407333 45.8362745,27.5496 40.395098,27.5496 C33.9672549,27.5496 28.8307843,34.1986 28.8307843,43.0784667 C28.8307843,48.761 30.7315686,52.5905333 30.7315686,52.5905333 C30.7315686,52.5905333 24.1658824,80.4436667 23.0123529,85.3341333 C20.7270588,95.0424 22.6713725,106.937933 22.8309804,108.1442 C22.9398039,108.856333 23.8466667,109.038 24.2747059,108.500267 C24.855098,107.722733 32.5017647,98.2760667 35.0845098,88.8366667 C35.8172549,86.1625333 39.3068627,72.3268 39.3068627,72.3268 C41.3962745,76.3162 47.4831373,79.8114667 53.9617647,79.8114667 C73.2452941,79.8114667 86.3113725,62.2043333 86.3113725,38.6458 C86.3113725,20.8352 71.2429412,4.2454 48.3464706,4.2454" id="Fill-2" sketch:type="MSShapeGroup"></path>
        </g>
    </g>
</svg>